<svg width="137" height="163" viewBox="0 0 137 163" fill="none" xmlns="http://www.w3.org/2000/svg">
<g id="material-symbols-light:pulmonology-outline-rounded">
<path id="Vector" d="M68.5 72.7252L55.6933 87.9793C55.1418 88.6403 54.4863 88.9482 53.727 88.9029C52.9714 88.8577 52.316 88.5158 51.7607 87.8774C51.2091 87.2345 50.9333 86.4693 50.9333 85.5818C50.9333 84.6989 51.2091 83.9269 51.7607 83.2659L65.6667 66.504V20.375C65.6667 19.4106 65.9387 18.6047 66.4827 17.9572C67.0267 17.3052 67.701 16.9792 68.5057 16.9792C69.3103 16.9792 69.9828 17.3052 70.523 17.9572C71.0632 18.6047 71.3333 19.4106 71.3333 20.375V66.504L85.2393 83.2659C85.7909 83.9269 86.0478 84.7125 86.01 85.6226C85.9722 86.5281 85.687 87.3137 85.1543 87.9793C84.6179 88.6403 83.9794 88.9709 83.239 88.9709C82.5023 88.9709 81.8582 88.6403 81.3067 87.9793L68.5 72.7252ZM31.6667 139.229C27.7227 139.229 24.3756 137.581 21.6253 134.285C18.8751 130.989 17.5 126.977 17.5 122.25V96.53C17.5 95.887 17.5529 95.2418 17.6587 94.5944C17.7644 93.9469 17.9118 93.313 18.1007 92.6927L31.287 50.7541C32.4921 46.8467 34.4377 43.6365 37.1237 41.1236C39.8134 38.6106 42.8489 37.3542 46.23 37.3542C49.97 37.3542 53.2 38.8235 55.92 41.762C58.6438 44.705 60.0057 48.3861 60.0057 52.8052V63.4749C60.0057 64.4394 59.7337 65.2453 59.1897 65.8928C58.6457 66.5402 57.9713 66.8662 57.1667 66.8708C56.3658 66.8708 55.6933 66.5448 55.1493 65.8928C54.6053 65.2498 54.3333 64.4439 54.3333 63.4749V52.8052C54.3333 50.2878 53.5154 48.2163 51.8797 46.5909C50.2477 44.9609 48.3399 44.1459 46.1563 44.1459C43.9086 44.1459 41.963 45.0242 40.3197 46.781C38.6763 48.5378 37.4637 50.6636 36.6817 53.1584L23.1667 95.6606V122.25C23.1667 125.139 23.9808 127.559 25.609 129.51C27.2372 131.462 29.2564 132.438 31.6667 132.438H48.6667C50.9976 132.438 52.9979 131.462 54.6677 129.51C56.3337 127.559 57.1667 125.139 57.1667 122.25V112.063C57.1667 111.098 57.4387 110.292 57.9827 109.645C58.5267 108.993 59.201 108.667 60.0057 108.667C60.8066 108.667 61.479 108.993 62.023 109.645C62.5632 110.297 62.8333 111.103 62.8333 112.063V122.25C62.8333 126.977 61.4356 130.989 58.64 134.285C55.8444 137.581 52.52 139.229 48.6667 139.229H31.6667ZM105.299 139.229H88.2993C84.3667 139.229 81.0233 137.581 78.2693 134.285C75.5116 130.989 74.1327 126.977 74.1327 122.25V112.063C74.1327 111.098 74.4047 110.292 74.9487 109.645C75.4927 108.997 76.167 108.671 76.9717 108.667C77.7763 108.667 78.4488 108.993 78.989 109.645C79.5292 110.297 79.7993 111.103 79.7993 112.063V122.25C79.7993 125.139 80.6134 127.559 82.2417 129.51C83.8699 131.462 85.891 132.438 88.305 132.438H105.305C107.636 132.438 109.634 131.462 111.3 129.51C112.966 127.559 113.799 125.139 113.799 122.25V95.6606L100.177 53.1584C99.3644 50.6591 98.1442 48.531 96.516 46.7742C94.8916 45.022 92.9894 44.1459 90.8097 44.1459C88.6374 44.1459 86.7297 44.9609 85.0863 46.5909C83.4506 48.2209 82.6327 50.2923 82.6327 52.8052V63.4749C82.6327 64.4394 82.3607 65.2453 81.8167 65.8928C81.2727 66.5402 80.6002 66.8662 79.7993 66.8708C78.9947 66.8708 78.3222 66.5448 77.782 65.8928C77.238 65.2453 76.966 64.4394 76.966 63.4749V52.8052C76.966 48.3816 78.326 44.7005 81.046 41.762C83.766 38.8235 86.9979 37.3542 90.7417 37.3542C94.119 37.3542 97.128 38.6106 99.7687 41.1236C102.413 43.6365 104.347 46.8467 105.571 50.7541L118.865 92.6927C119.054 93.313 119.202 93.9469 119.307 94.5944C119.413 95.2418 119.466 95.887 119.466 96.53V122.25C119.466 126.977 118.068 130.989 115.273 134.285C112.477 137.581 109.153 139.229 105.299 139.229Z" fill="#FEFDF9"/>
</g>
</svg>
